<?xml version="1.0" encoding="UTF-8" standalone="no"?>
<svg width="46px" height="23px" viewBox="0 0 46 23" version="1.1" xmlns="http://www.w3.org/2000/svg" xmlns:xlink="http://www.w3.org/1999/xlink" xmlns:sketch="http://www.bohemiancoding.com/sketch/ns">
    <!-- Generator: Sketch 3.3.2 (12043) - http://www.bohemiancoding.com/sketch -->
    <title>end_status</title>
    <desc>Created with Sketch.</desc>
    <defs></defs>
    <g id="Mockups" stroke="none" stroke-width="1" fill="none" fill-rule="evenodd" sketch:type="MSPage">
        <g id="Moments" sketch:type="MSArtboardGroup" transform="translate(-697.000000, -1473.000000)" fill="#BBBBBB">
            <g id="end_status" sketch:type="MSLayerGroup" transform="translate(697.000000, 1473.000000)">
                <rect id="Rectangle-193" sketch:type="MSShapeGroup" x="0" y="20" width="45" height="1"></rect>
                <rect id="Rectangle-193" sketch:type="MSShapeGroup" x="0" y="22" width="45" height="1"></rect>
                <path d="M0,0 L9.888,0 L9.888,1.704 L1.728,1.704 L1.728,7.08 L9.816,7.08 L9.816,8.76 L1.728,8.76 L1.728,15.528 L9.816,15.528 L9.816,17.232 L0,17.232 L0,0 Z M12.864,17.232 L12.864,0 L13.248,0 L24.696,13.2 L24.696,0 L26.4,0 L26.4,17.232 L26.016,17.232 L14.64,4.2 L14.64,17.232 L12.864,17.232 Z M30.6,17.232 L30.6,0 L34.176,0 C36.6240122,0 38.4199943,0.1799982 39.564,0.54 C40.7080057,0.9000018 41.6959958,1.46799612 42.528,2.244 C43.3600042,3.02000388 43.9999978,3.9679944 44.448,5.088 C44.8960022,6.2080056 45.12,7.51599252 45.12,9.012 C45.12,10.5080075 44.7720035,11.9159934 44.076,13.236 C43.3799965,14.5560066 42.436006,15.5519966 41.244,16.224 C40.051994,16.8960034 38.3360112,17.232 36.096,17.232 L30.6,17.232 Z M32.256,15.6 L34.248,15.6 C36.3280104,15.6 37.8359953,15.496001 38.772,15.288 C39.7080047,15.079999 40.5279965,14.6680031 41.232,14.052 C41.9360035,13.4359969 42.4719982,12.6880044 42.84,11.808 C43.2080018,10.9279956 43.392,9.92000568 43.392,8.784 C43.392,7.64799432 43.1800021,6.6000048 42.756,5.64 C42.3319979,4.6799952 41.7280039,3.88800312 40.944,3.264 C40.1599961,2.63999688 39.2360053,2.22000108 38.172,2.004 C37.1079947,1.78799892 35.5440103,1.68 33.48,1.68 L32.256,1.68 L32.256,15.6 Z" id="END" sketch:type="MSShapeGroup"></path>
            </g>
        </g>
    </g>
</svg>