<?xml version="1.0" encoding="UTF-8" standalone="no"?>
<svg width="26px" height="24px" viewBox="0 0 26 24" version="1.1" xmlns="http://www.w3.org/2000/svg" xmlns:xlink="http://www.w3.org/1999/xlink" xmlns:sketch="http://www.bohemiancoding.com/sketch/ns">
    <!-- Generator: Sketch 3.3.2 (12043) - http://www.bohemiancoding.com/sketch -->
    <title>Shape</title>
    <desc>Created with Sketch.</desc>
    <defs></defs>
    <g id="Mockups" stroke="none" stroke-width="1" fill="none" fill-rule="evenodd" sketch:type="MSPage">
        <g id="Moments" sketch:type="MSArtboardGroup" transform="translate(-1339.000000, -897.000000)" fill="#BBBBBB">
            <g id="list" sketch:type="MSLayerGroup" transform="translate(75.000000, 177.000000)">
                <g id="3" transform="translate(880.000000, 388.000000)" sketch:type="MSShapeGroup">
                    <path d="M398.780916,337.566589 L398.780916,337.566589 L396.992062,341.144297 L395.203208,337.566589 C393.133999,333.428171 388.667921,333.367818 386.715931,336.686202 C384.260757,340.859997 387.475067,347.467189 398.040257,353.968844 L395.943868,353.968844 C406.509059,347.467189 409.723368,340.859997 407.268194,336.686202 C405.316204,333.367818 400.850125,333.428171 398.780916,337.566589 L398.780916,337.566589 Z M396.488692,335.777734 C396.665504,336.057378 396.833662,336.35536 396.992062,336.672161 C397.150462,336.35536 397.31862,336.057378 397.495432,335.777734 C397.495432,335.777734 398,335 398.222796,334.78336 C405.245672,326.492555 421.417568,340.641082 396.992062,355.672161 C372.566559,340.641082 388.738453,326.492555 395.761328,334.78336 C396,335 396.488692,335.777734 396.488692,335.777734 Z" id="Shape"></path>
                </g>
            </g>
        </g>
    </g>
</svg>