<?xml version="1.0" encoding="UTF-8" standalone="no"?>
<svg width="61px" height="60px" viewBox="0 0 61 60" version="1.1" xmlns="http://www.w3.org/2000/svg" xmlns:xlink="http://www.w3.org/1999/xlink" xmlns:sketch="http://www.bohemiancoding.com/sketch/ns">
    <!-- Generator: Sketch 3.3.2 (12043) - http://www.bohemiancoding.com/sketch -->
    <title>search_L</title>
    <desc>Created with Sketch.</desc>
    <defs></defs>
    <g id="Mockups" stroke="none" stroke-width="1" fill="none" fill-rule="evenodd" sketch:type="MSPage">
        <g id="Moments---Details" sketch:type="MSArtboardGroup" transform="translate(-469.000000, -537.000000)" fill="#FFFFFF">
            <g id="photo" sketch:type="MSLayerGroup" transform="translate(74.750000, 217.000000)">
                <g id="preview_BTN" sketch:type="MSShapeGroup">
                    <path d="M397.540381,344.132989 C397.540381,332.226221 407.225586,322.539746 419.133624,322.539746 C431.039122,322.539746 440.726867,332.226221 440.726867,344.132989 C440.726867,356.039757 431.039122,365.726232 419.133624,365.726232 C407.225586,365.726232 397.540381,356.039757 397.540381,344.132989 C397.540381,344.132989 397.540381,356.039757 397.540381,344.132989 L397.540381,344.132989 L397.540381,344.132989 Z M417,342 L407.997005,342 C406.894979,342 406,342.895431 406,344 C406,345.11227 406.894089,346 407.997005,346 L417,346 L417,355.002995 C417,356.105021 417.895431,357 419,357 C420.11227,357 421,356.105911 421,355.002995 L421,346 L430.002995,346 C431.105021,346 432,345.104569 432,344 C432,342.88773 431.105911,342 430.002995,342 L421,342 L421,332.997005 C421,331.894979 420.104569,331 419,331 C417.88773,331 417,331.894089 417,332.997005 L417,342 Z M455,376.858183 L437.696192,359.551834 C441.173974,355.369096 443.267248,349.99746 443.267248,344.132989 C443.267248,330.803607 432.463006,319.999365 419.133624,319.999365 C405.806783,319.999365 395,330.803607 395,344.132989 C395,357.4611 405.806783,368.266613 419.133624,368.266613 C424.998095,368.266613 430.369731,366.173339 434.552469,362.695556 L451.856278,380.000635 L455,376.858183 Z" id="search_L"></path>
                </g>
            </g>
        </g>
    </g>
</svg>