<?xml version="1.0" encoding="UTF-8" standalone="no"?>
<svg width="62px" height="62px" viewBox="0 0 62 62" version="1.1" xmlns="http://www.w3.org/2000/svg" xmlns:xlink="http://www.w3.org/1999/xlink" xmlns:sketch="http://www.bohemiancoding.com/sketch/ns">
    <!-- Generator: Sketch 3.3.2 (12043) - http://www.bohemiancoding.com/sketch -->
    <title>search_L</title>
    <desc>Created with Sketch.</desc>
    <defs></defs>
    <g id="Mockups" stroke="none" stroke-width="1" fill="none" fill-rule="evenodd" sketch:type="MSPage">
        <g id="Moments" sketch:type="MSArtboardGroup" transform="translate(-469.000000, -496.000000)" stroke="#FFFFFF" fill="#FFFFFF">
            <g id="list" sketch:type="MSLayerGroup" transform="translate(75.000000, 177.000000)">
                <g id="1" sketch:type="MSShapeGroup">
                    <g id="detail_BTN">
                        <path d="M397.540381,344.132989 C397.540381,332.226221 407.225586,322.539746 419.133624,322.539746 C431.039122,322.539746 440.726867,332.226221 440.726867,344.132989 C440.726867,356.039757 431.039122,365.726232 419.133624,365.726232 C407.225586,365.726232 397.540381,356.039757 397.540381,344.132989 C397.540381,344.132989 397.540381,356.039757 397.540381,344.132989 L397.540381,344.132989 L397.540381,344.132989 Z M455,376.858183 L437.696192,359.551834 C441.173974,355.369096 443.267248,349.99746 443.267248,344.132989 C443.267248,330.803607 432.463006,319.999365 419.133624,319.999365 C405.806783,319.999365 395,330.803607 395,344.132989 C395,357.4611 405.806783,368.266613 419.133624,368.266613 C424.998095,368.266613 430.369731,366.173339 434.552469,362.695556 L451.856278,380.000635 L455,376.858183 L455,376.858183 Z" id="search_L"></path>
                    </g>
                </g>
            </g>
        </g>
    </g>
</svg>