<?xml version="1.0" encoding="utf-8"?>
<!-- Generator: Adobe Illustrator 17.0.2, SVG Export Plug-In . SVG Version: 6.00 Build 0)  -->
<!DOCTYPE svg PUBLIC "-//W3C//DTD SVG 1.1//EN" "http://www.w3.org/Graphics/SVG/1.1/DTD/svg11.dtd">
<svg version="1.1" id="Layer_1" xmlns="http://www.w3.org/2000/svg" xmlns:xlink="http://www.w3.org/1999/xlink" x="0px" y="0px"
	 width="180px" height="156px" viewBox="0 0 180 156" enable-background="new 0 0 180 156" xml:space="preserve">
<g>
	<path fill="#010101" d="M143.436,58.167c0.675,0,2.013-0.396,2.94-1.052c-0.002,0.012-0.005,0.036-0.007,0.047
		c-0.034,0.18-0.069,0.401-0.07,0.701c-0.001,0.408-0.001,0.704,0.185,0.891L146.666,59h0.175c0.177,0,0.33-0.189,0.438-0.263
		c0.485-0.324,1.551-0.497,2.512-0.542l0.114-0.005l0.096-0.062c0.385-0.25,0.387-0.823,0.369-1.058s-0.103-0.802-0.521-0.992
		c-0.482-0.221-1.021,0.07-1.371,0.312c-0.008,0.005-0.016,0.011-0.023,0.017c-0.405-1.647-0.35-2.271-0.26-3.28
		c0.05-0.556,0.111-1.249,0.111-2.27c0-1.16,0.214-1.88,0.402-2.516c0.289-0.973,0.538-1.812-0.028-3.575
		c-0.157-0.487-0.466-0.56-0.636-0.56c-0.335,0-0.592,0.269-0.889,0.58c-0.209,0.219-0.462,0.483-0.704,0.604
		c-0.566-0.237-1.225-0.272-1.858-0.272l-0.999,0.011c-1.961,0-3.17,1.404-4.094,2.777c-1.102,1.636-1.637,3.181-1.637,4.721
		C137.864,56.457,139.582,58.167,143.436,58.167z M143.488,46.18c0.941,0,1.414,0.473,2.356,1.415l0.023,0.023
		c0.148,1.262,0.33,2.159,0.478,2.884c0.319,1.575,0.497,2.453-0.018,5.041c-0.681,0.768-1.825,1.336-2.707,1.336
		c-1.838,0-3.692-1.471-3.692-4.756C139.929,49.18,141.726,46.18,143.488,46.18z"/>
	<path fill="#010101" d="M139.077,43.646c0.888,0.102,1.602,0.208,2.211,0.299c0.946,0.141,1.631,0.243,2.344,0.243
		c1.162,0,2.285-0.275,4.293-1.051c0.462-0.178,0.722-0.5,0.679-0.84c-0.015-0.113-0.107-0.488-0.692-0.556
		c-3.944-0.453-4.382-0.416-7.732-0.023l-1.05,0.122c-0.449,0.051-0.775,0.446-0.775,0.938
		C138.354,43.24,138.65,43.597,139.077,43.646z"/>
	<path fill="#010101" d="M122.725,64.778c0.099,0,0.205-0.014,0.31-0.03c0.059-0.009,0.116-0.02,0.167-0.02
		c1.867,0,5.342,0,5.342-4.482c0-1.889-0.16-2.849-0.315-3.778c-0.157-0.936-0.306-1.819-0.306-3.638
		c0-1.465,0.181-2.349,0.339-3.128c0.236-1.157,0.439-2.156-0.102-4.385c-0.145-0.598-0.72-1-1.431-1
		c-0.678,0-1.227,0.384-1.365,0.955c-0.542,2.235-0.341,3.249-0.108,4.422c0.156,0.786,0.333,1.677,0.333,3.136
		c0,1.869,0.066,2.818,0.131,3.737c0.062,0.904,0.129,1.839,0.129,3.679c0,1.224-0.663,1.43-2.148,1.43l-0.498-0.002
		c-0.046,0-0.097-0.009-0.146-0.016c-0.444-0.065-0.775,0.075-0.869,0.427c-0.056,0.216-0.131,0.405-0.199,0.579
		c-0.212,0.541-0.453,1.154,0.164,1.873C122.288,64.697,122.48,64.778,122.725,64.778z"/>
	<path fill="#010101" d="M127.119,43.976c0.239,0,0.693-0.087,1.051-0.675c0.855-1.405,0.855-2.131,0.003-3.531
		c-0.305-0.501-0.816-0.813-1.335-0.813c-0.568,0-1.047,0.363-1.279,0.972c-0.567,1.489-0.59,1.76,0.252,3.142
		C126.16,43.646,126.638,43.976,127.119,43.976z"/>
	<path fill="#010101" d="M131.844,58.572c0.15,0.566,0.579,0.932,1.092,0.932c0.536,0,1.003-0.401,1.162-0.998
		c0.631-2.367,0.593-3.087,0.517-4.522c-0.031-0.574-0.068-1.269-0.068-2.248c0-1.253,0.122-2.041,0.23-2.737
		c0.177-1.144,0.316-2.047-0.244-4.148c-0.16-0.6-0.74-1.02-1.41-1.02c-0.667,0-1.191,0.421-1.335,1.072
		c-0.491,2.212-0.422,3.033-0.316,4.276c0.056,0.658,0.119,1.404,0.119,2.557c0,1.139-0.072,1.882-0.136,2.538
		C131.333,55.531,131.253,56.361,131.844,58.572z"/>
	<path fill="#010101" d="M133.415,43.765c0.239,0,0.693-0.087,1.051-0.675c0.855-1.405,0.856-2.131,0.004-3.531
		c-0.305-0.501-0.816-0.812-1.336-0.812c-0.568,0-1.047,0.363-1.278,0.971c-0.568,1.488-0.591,1.759,0.251,3.142
		C132.456,43.435,132.934,43.765,133.415,43.765z"/>
	<path fill="#010101" d="M152.578,51.386c0,1.118-0.066,1.875-0.119,2.483c-0.111,1.278-0.179,2.049,0.418,4.293
		c0.169,0.634,0.747,1.077,1.407,1.077c0.547,0,0.995-0.318,1.169-0.831c0.541-1.596,0.28-2.415,0.004-3.281
		c-0.193-0.608-0.395-1.237-0.395-2.277c0-1.333-0.072-2.015-0.142-2.674c-0.064-0.604-0.125-1.178-0.132-2.239
		c0.039-0.005,0.07-0.015,0.106-0.031c1.169-0.5,3.032-1.084,4.438-1.084c1.383,0,2,0.622,2,2.017c0,1.119-0.119,1.663-0.245,2.238
		c-0.131,0.594-0.265,1.209-0.265,2.419c0,0.849-0.124,1.41-0.233,1.906c-0.185,0.838-0.344,1.562,0.22,3.018
		c0.214,0.556,0.869,0.916,1.667,0.916c0.779,0,1.394-0.35,1.604-0.894c0.566-1.463,0.412-2.212,0.233-3.065
		c-0.104-0.499-0.223-1.089-0.223-1.93c0-1.222-0.17-1.891-0.335-2.49c-0.157-0.571-0.306-1.208-0.306-2.316
		c0-3.905-1.979-4.641-4.117-4.641h-0.676c-1.344,0-2.64,0.229-3.714,0.583c-0.081-0.08-0.179,0.066-0.24,0.033
		c-0.14-0.073-0.287-0.159-0.437-0.246c-0.507-0.294-0.985-0.572-1.396-0.572c-0.324,0-0.693,0.19-0.756,0.726
		c-0.229,1.938-0.047,2.855,0.147,3.825C152.417,49.125,152.578,49.928,152.578,51.386z"/>
	<path fill="#010101" d="M51.804,100.536c0.557,0.242,1.255,0.562,2.021,0.914c1.604,0.736,3.421,1.571,4.949,2.157
		c0.121,0.046,0.245,0.069,0.368,0.069c0.405,0,0.761-0.255,0.884-0.635c0.118-0.362-0.015-0.747-0.333-0.979
		c-1.564-1.176-2.987-2-4.242-2.728c-0.896-0.52-1.741-1.01-2.526-1.562c-0.444-0.31-0.812-0.454-1.158-0.454
		c-0.627,0-1.013,0.482-1.245,0.842c-0.172,0.258-0.387,0.652-0.26,1.097C50.395,99.725,50.854,100.105,51.804,100.536z"/>
	<path fill="#010101" d="M65.25,123.36c-0.605-0.249-1.247-0.02-1.661,0.184c-0.113,0.055-0.284,0.138-0.307,0.15
		c0,0-0.042-0.034-0.099-0.176c-0.632-1.546-0.473-2.166-0.232-3.105c0.162-0.631,0.364-1.417,0.364-2.639
		c0-1.511-0.075-2.278-0.147-3.021c-0.074-0.756-0.143-1.469-0.143-2.938c0-1.069,0.3-1.851,0.565-2.54
		c0.438-1.138,0.852-2.212-0.618-3.715c-0.728-0.745-1.403-1.092-2.125-1.092c-0.619,0-1.197,0.247-1.866,0.532
		c-0.567,0.242-1.21,0.517-2.011,0.696c-0.562,0.126-0.638,0.513-0.647,0.628c-0.029,0.354,0.239,0.69,0.7,0.878l0.159,0.03
		c2.372,0,2.477,0.639,2.477,1.968c0,1.492,0.083,2.251,0.163,2.984c0.081,0.744,0.157,1.446,0.157,2.893
		c0,1.153,0.075,1.863,0.142,2.488c0.099,0.93,0.17,1.604-0.105,3.272c-1.289,2.157-3.744,3.775-5.741,3.775
		c-2.237,0-3.256-2.324-3.256-4.483c0-1.792-0.057-2.702-0.112-3.583c-0.054-0.867-0.11-1.765-0.11-3.529
		c0-1.312,0.342-2.235,0.644-3.051c0.499-1.345,0.929-2.506-0.542-4.409c-0.548-0.71-1.1-1.041-1.734-1.041
		c-0.641,0-1.231,0.344-1.915,0.741c-0.589,0.342-1.256,0.729-2.062,0.949c-0.466,0.127-0.787,0.466-0.816,0.864
		c-0.026,0.359,0.184,0.673,0.563,0.84l0.17,0.035c2.159,0,2.159,0,2.159,1.385c0,1.391,0.101,2.097,0.198,2.78
		c0.098,0.685,0.19,1.331,0.19,2.662c0,1.324-0.111,1.969-0.229,2.649c-0.119,0.687-0.241,1.396-0.241,2.794
		c0,1.896,0.7,3.66,1.919,4.842c1.093,1.059,2.822,1.642,4.87,1.642c2.538,0,4.457-1.817,6.082-3.798
		c0.035,0.17,0.06,0.38,0.06,0.566c0,0.834-0.118,1.534-0.205,2.054c-0.117,0.792-0.09,1.152,0.106,1.379
		c0.105,0.122,0.252,0.189,0.413,0.189c0.234,0,0.465-0.135,0.795-0.465c0.749-0.747,1.517-0.84,3.373-1.065l0.737-0.091
		l0.149-0.048c0.322-0.176,0.5-0.536,0.476-0.964C65.93,124.047,65.703,123.546,65.25,123.36z"/>
	<path fill="#010101" d="M14.232,107.793c0.795,0,1.765,0.179,2.792,0.367c0.743,0.137,1.512,0.278,2.333,0.378
		c0.154,0.016,0.288,0.064,0.416,0.112c0.402,0.146,0.903,0.134,1.189-0.376l0.23-0.398c0.533-0.907,0.885-1.507-0.202-2.596
		c-0.403-0.404-0.534-0.47-1-0.5l-0.242-0.019c-0.701-0.079-1.504-0.116-2.528-0.116c-0.552,0-1.101,0.011-1.627,0.021
		c-0.479,0.009-0.938,0.019-1.362,0.019c-1.991,0-3.421,0.338-4.637,1.097c-1.406,0.878-1.995,2.032-2.1,4.115
		c-0.109,1.922,0.432,3.252,1.808,4.445c1.107,0.959,2.419,2.053,3.995,2.889c0.34,0.175,0.689,0.347,1.038,0.519
		c2.127,1.05,4.137,2.041,4.049,3.593c-0.065,1.075-1.318,2.332-4.635,2.332c-1.015,0-2.202-0.259-3.578-0.557
		c-0.726-0.158-1.504-0.327-2.341-0.478l-0.18-0.032l-0.146,0.109c-1.908,1.414-1.405,2.776-0.936,3.462l0.098,0.144l0.17,0.033
		c2.602,0.503,4.932,0.545,6.912,0.545c2.622,0,4.137-0.229,5.23-0.79c1.648-0.847,2.587-2.441,2.716-4.615
		c0.115-2.19-1.063-3.554-2.354-4.701l-0.422-0.378c-1.094-0.982-2.333-2.096-3.759-2.824c-0.352-0.182-0.711-0.358-1.067-0.534
		c-1.88-0.925-3.656-1.799-3.573-2.982C10.615,108.561,11.863,107.793,14.232,107.793z"/>
	<path fill="#010101" d="M42.542,119.049c0-1.604-0.072-2.42-0.142-3.209c-0.068-0.771-0.139-1.567-0.139-3.136
		c0-3.124-0.529-4.955-1.768-6.125c-1.581-1.491-3.833-1.614-6.196-1.614c-1.65,0-3.652,0.167-5.235,0.433
		c-0.225-1.487,0.007-2.371,0.232-3.229c0.286-1.092,0.582-2.221-0.145-4.342c-0.269-0.784-0.825-1.253-1.487-1.253
		c-0.627,0-1.212,0.432-1.564,1.153c-0.864,1.768-0.74,2.54-0.569,3.609c0.088,0.55,0.188,1.173,0.188,2.099
		c0,1.434,0.128,2.162,0.253,2.866c0.124,0.699,0.24,1.36,0.24,2.719c0,1.402,0.025,2.104,0.051,2.806
		c0.025,0.693,0.05,1.387,0.05,2.774c0,1.363-0.096,2.026-0.198,2.728c-0.102,0.7-0.207,1.424-0.207,2.849
		c0,1.055-0.242,1.764-0.455,2.389c-0.333,0.977-0.648,1.898,0.161,3.551c0.329,0.672,1.001,1.073,1.799,1.073
		c0.884,0,1.689-0.491,2.052-1.251c0.85-1.783,0.701-2.578,0.495-3.679c-0.109-0.583-0.232-1.243-0.232-2.23
		c0-1.447-0.053-2.183-0.104-2.894c-0.05-0.696-0.102-1.417-0.102-2.833c0-1.365-0.073-2.082-0.143-2.776
		c-0.063-0.628-0.125-1.227-0.117-2.292c0.038,0.005,0.079,0.004,0.124,0.005c0.477-0.098,0.992-0.258,1.538-0.428
		c1.036-0.322,2.21-0.688,3.375-0.688c1.839,0,4.924,0.596,4.924,4.58c0,1.563-0.083,2.323-0.171,3.127
		c-0.086,0.791-0.176,1.609-0.176,3.218c0,1.123-0.14,1.855-0.264,2.501c-0.224,1.172-0.386,2.02,0.459,3.985
		c0.326,0.758,0.991,1.247,1.695,1.247c0.723,0,1.316-0.511,1.548-1.335c0.581-2.065,0.498-2.835,0.372-3.998
		C42.618,120.833,42.542,120.135,42.542,119.049z"/>
	<path fill="#010101" d="M84.68,118.649c0-1.793-0.112-2.703-0.22-3.585c-0.109-0.895-0.213-1.74-0.213-3.48
		c0-2.363-0.394-3.846-1.316-4.956c-1.34-1.614-3.164-1.831-4.771-1.831c-2.146,0-4.617,0.431-6.6,1.139
		c0.02-0.092,0.022-0.192-0.007-0.301c-0.053-0.192-0.191-0.35-0.412-0.466c-0.188-0.1-0.38-0.209-0.573-0.318
		c-0.679-0.388-1.321-0.753-1.869-0.753c-0.251,0-0.854,0.092-1.014,0.946c-0.376,2.012-0.169,2.927,0.07,3.985
		c0.167,0.74,0.357,1.58,0.357,2.996c0,1.713,0.004,2.569,0.008,3.426c0.003,0.855,0.007,1.711,0.007,3.421
		c0,1.303-0.221,2.126-0.416,2.853c-0.306,1.139-0.57,2.122,0.247,4.169c0.287,0.721,0.884,1.15,1.596,1.15
		c0.74,0,1.436-0.464,1.815-1.21c0.884-1.738,0.792-2.462,0.651-3.559c-0.065-0.51-0.14-1.089-0.14-1.926
		c0-1.335,0.022-2.002,0.044-2.67c0.022-0.674,0.045-1.348,0.045-2.696c0-1.385-0.181-2.091-0.356-2.773
		c-0.163-0.635-0.317-1.236-0.323-2.413c1.646-0.699,4.602-1.438,6.869-1.438c1.725,0,2.874,0.549,2.874,3.226
		c0,1.749-0.071,2.639-0.14,3.498c-0.07,0.877-0.143,1.784-0.143,3.567c0,1.151-0.09,1.922-0.169,2.603
		c-0.159,1.361-0.264,2.262,0.623,4.559c0.29,0.75,0.858,1.198,1.519,1.198c0.672,0,1.275-0.479,1.573-1.248
		c0.874-2.263,0.756-3.137,0.579-4.459C84.784,120.615,84.68,119.839,84.68,118.649z"/>
	<path fill="#010101" d="M120.957,123.201c-1.17-1.738-1.959-3.686-2.583-5.786c-0.604-2.031-1.602-4.089-1.602-6.257
		c0-1.967,0.354-3.915,0.855-5.689c0.518-1.834,1.365-3.604,2.343-5.234c0.959-1.599,2.391-3.277,3.721-4.68
		c-3.387-0.841-3.564,0.312-7.055,0.312c-3.493,0-3.493,0.184-6.987,0.184c-2.006,0-3.16-0.837-4.266-1.106
		c0.089-1.196,0.227-1.875,0.227-3.993c0-3.117-0.314-3.117-0.314-6.234c0-3.117-0.253-3.117-0.253-6.233
		c0-3.116-0.24-3.116-0.24-6.232c0-3.116,0.767-3.116,0.767-6.232c0-3.117-0.362-3.117-0.362-6.233c0-0.994-0.011-1.669-0.027-2.231
		c0.639-0.021,1.374-0.039,2.603-0.039c3.07,0,3.07,0.73,6.141,0.73c1.779,0,3.51-1.872,3.51-3.736s-1.733-3.048-3.512-3.048
		c-2.814,0-2.817-0.592-5.631-0.592c-1.662,0-2.346,0.146-3.206,0.265c-0.011-1.088-0.026-1.804-0.026-3.812
		c0-3.116,0.033-3.116,0.033-6.232c0-3.115,0.345-3.115,0.345-6.23c0-1.864-1.857-2.857-3.613-2.857
		c-3.182,0-3.182-0.195-6.363-0.195s-3.182,0.259-6.363,0.259c-3.18,0-3.18-0.17-6.359-0.17c-3.181,0-3.181-0.561-6.361-0.561
		c-3.179,0-3.179,0.791-6.359,0.791c-3.179,0-3.179-0.257-6.357-0.257s-3.179,0.173-6.357,0.173c-3.179,0-3.179,0.094-6.357,0.094
		c-3.177,0-3.177-0.513-6.354-0.513c-3.179,0-3.179,0.129-6.359,0.129c-1.756,0-3.155,1.243-3.155,3.106
		c0,3.235-0.02,3.235-0.02,6.469s0.02,3.235,0.02,6.469c0,3.232-0.047,3.232-0.047,6.465c0,1.864,1.446,3.696,3.202,3.696
		c2.986,0,2.986,0.043,5.972,0.043s2.986,0.174,5.972,0.174c2.984,0,3.972-2.506,5.92-0.251c2.261,2.618,0.333,3.414,0.333,6.869
		s0.293,3.5-0.43,6.879c-1.692,0.996-3.913,2.422-7.359,2.422c-1.771,0-3.297-0.289-4.684-0.721c-2.566-0.8-4.317-1.675-4.427-1.773
		c-1.317-1.21-3.603-1.157-4.758,0.233c-1.162,1.397-0.849,3.649,0.468,4.882c0.122,0.115,2.475,2.124,6.283,3.356
		c2.011,0.65,4.455,1.308,7.082,1.308c2.763,0,5.328-0.898,7.442-1.766c3.829-1.572,6.48-3.723,6.608-3.867
		c0.558-0.627-0.096-1.64-0.096-2.502c0-3.164,0.706-3.164,0.706-6.329c0-3.164-0.561-3.164-0.561-6.329
		c0-3.162,0.013-3.162,0.013-6.324c0-1.864-0.42-2.933-2.176-2.933c-3.13,0-3.13-0.33-6.26-0.33s-3.13,0.054-6.26,0.054
		c-3.128,0-4.003,2.246-6.199,0.025c-2.227-2.253-0.112-3.108-0.112-6.271c0-3.164-2.365-4.266-0.13-6.511
		c2.22-2.229,3.336,0.114,6.486,0.114c3.15,0,3.15-0.126,6.301-0.126c3.148,0,3.148,0.383,6.296,0.383
		c3.149,0,3.149-0.499,6.298-0.499c3.148,0,3.148,0.094,6.296,0.094c3.147,0,3.147,0.143,6.294,0.143s3.147,0.128,6.294,0.128
		s3.147-0.372,6.294-0.372c3.146,0,3.93-1.758,6.196,0.417c2.181,2.094-0.255,2.921-0.255,5.941c0,3.02,0.644,3.02,0.644,6.039
		c0,0.199-0.002,0.384-0.005,0.558c-0.447-0.02-0.983-0.033-1.703-0.033c-2.81,0-2.834,0.394-5.643,0.394
		c-2.811,0-2.859-0.127-5.671-0.127c-2.81,0-2.907-0.132-5.717-0.132c-1.779,0-3.602,1.181-3.602,3.045
		c0,3.375-0.387,3.375-0.387,6.751s0,3.375,0,6.751c0,3.373,0.032,3.373,0.032,6.746c0,1.864,2.37,3.387,4.149,3.387
		c3.491,0,3.491,0.1,6.981,0.1c3.491,0,3.491,0.507,6.981,0.507c2.302,0,3.088-0.102,4.356-0.171
		c0.003,0.59,0.006,1.288,0.006,2.388c0,3.016,0.151,3.016,0.151,6.032c0,3.014,0.197,3.014,0.197,6.029
		c0,3.017-0.393,3.017-0.393,6.033c0,3.016-0.445,3.016-0.445,6.032c0,3.016,0.616,3.016,0.616,6.031s-0.179,3.016-0.179,6.031
		c0,3.016,0.039,3.016,0.039,6.032c0,3.016-0.464,3.016-0.464,6.031c0,3.015,0.146,3.015,0.146,6.03
		c0,3.016,0.274,3.016,0.274,6.031c0,3.015,0.21,3.015,0.21,6.029c0,1.864,0.979,3.243,2.735,3.243c1.756,0,3.734-1.38,3.734-3.243
		c0-3.119-0.094-3.119-0.094-6.239s0.323-3.119,0.323-6.239c0-3.018-0.414-3.123-0.441-5.955c0.864-0.255,1.825-0.946,3.39-0.946
		c2.824,0,2.824,0.415,5.647,0.415c2.826,0,2.826-0.506,5.651-0.506s2.951,1.141,5.656,0.329
		C123.533,126.744,122.193,125.037,120.957,123.201z M89.177,71.466c-2.984,0-3.928,2.092-5.902-0.14
		c-2.238-2.531-0.323-3.317-0.323-6.691s-1.737-3.997,0.537-6.495c2.066-2.269,2.792-0.246,5.865-0.246s3.073-0.327,6.145-0.327
		c1.41,0,2.172,0.013,2.882,0.027c0.062,2.064,0.312,2.393,0.312,5.033c0,3.017,0.07,3.017,0.07,6.033
		c0,1.444-0.063,2.196-0.129,2.92c-0.953-0.031-1.665-0.072-3.485-0.072C92.163,71.507,92.163,71.466,89.177,71.466z"/>
	<path fill="#010101" d="M37.346,7.236c0.194,0.077,2.442,1.202,6.074,2.057c1.824,0.429,3.927,1.185,6.294,1.477
		c2.008,0.247,4.21,0.123,6.465,0.123c3.142,0.142,5.342-0.246,7.163-0.524c2.693-0.411,4.503-0.962,6.967-1.709
		c1.673-0.507,3.272-1.133,4.91-1.512c1.668-0.385,3.35-0.774,5.058-0.982c1.656-0.202,3.386-0.13,5.152-0.124
		c2.1,0.008,3.95,0.192,5.57,0.41C93.184,6.749,94.87,7.52,96.334,8c2.459,0.806,4.22,1.201,5.31,1.667
		c1.865,0.797,3.272,1.095,4.183-0.358c0.911-1.453,0.365-3.754-1.135-4.636c-0.178-0.104-2.556-1.56-6.51-2.803
		c-1.921-0.604-4.391-0.477-7.012-0.875c-2.136-0.324-4.432-0.653-6.958-0.653c-1.88,0-3.697-0.499-5.363-0.288
		c-1.854,0.234-3.501,1.137-5.141,1.522C71.892,2,70.048,1.957,68.426,2.418c-1.963,0.557-3.81,1.25-5.759,1.65
		c-1.918,0.393-3.838,1.188-5.929,1.188c-2.09-0.117-3.968-0.908-5.728-1.183c-2.148-0.336-4.134-0.304-5.78-0.705
		c-2.444-0.596-4.349-0.98-5.659-1.211c-2.256-0.398-3.079-0.108-3.739,1.465C35.17,5.195,35.719,6.596,37.346,7.236z"/>
	<path fill="#010101" d="M13.865,82.925c2.804,0,4.951-1.391,6.799-2.19c3.701-1.601,5.675-3.674,5.843-3.838
		c0.65-0.635,1.067-1.479,1.067-2.386c0-2.956,0.064-2.956,0.064-5.911s-0.447-2.956-0.447-5.911c0-2.954,0.464-2.954,0.464-5.907
		c0-1.404-0.143-2.139-0.292-2.843c0.112-0.351,0.184-0.723,0.184-1.115c0-0.692-0.188-1.288-0.519-1.765
		c-0.001-0.061-0.002-0.116-0.002-0.179c0-2.953,0.302-2.953,0.302-5.906c0-2.952,0.448-2.952,0.448-5.904
		c0-2.952-0.529-2.952-0.529-5.904c0-2.952,0.423-2.952,0.423-5.904c0-2.951-0.607-2.951-0.607-5.901
		c0-2.953,0.731-2.953,0.731-5.905c0-2.952-0.21-2.952-0.21-5.904c0-2.952-0.107-2.952-0.107-5.904c0-1.864-1.287-3.109-3.155-3.109
		c-3.384,0-3.384-0.279-6.768-0.279s-3.384,0.45-6.768,0.45c-3.382,0-3.382-0.148-6.763-0.148c-1.868,0-2.97,1.469-2.97,3.332
		c0,1.864,1.101,3.007,2.97,3.007c2.767,0,2.767,0.644,5.534,0.644S12.325,7.3,15.092,7.3c2.765,0,3.41-1.834,5.286,0.193
		c2.032,2.195,0.166,2.763,0.166,5.751s0.216,2.988,0.216,5.976c0,2.942-0.163,2.991-0.168,5.847
		c-0.949,0.126-1.743,0.274-3.601,0.274c-3.243,0-3.243-0.691-6.486-0.691c-3.241,0-3.241,0.575-6.481,0.575
		c-1.868,0-3.125,1.271-3.125,3.134c0,1.864,1.257,3.097,3.125,3.097c3.243,0,3.243,0.225,6.486,0.225s3.243,0.178,6.486,0.178
		c1.686,0,2.495,0.055,3.339,0.108c0.104,2.199,0.619,2.476,0.619,5.16c0,2.984-0.056,2.984-0.056,5.968
		c0,2.984,0.097,2.984,0.097,5.968c0,0.152-0.003,0.292-0.007,0.429c-0.863-0.154-1.708-0.31-3.433-0.31
		c-3.384,0-3.384-0.075-6.768-0.075c-3.382,0-3.382,0.266-6.763,0.266c-1.868,0-3.118,1.588-3.118,3.452
		c0,1.864,1.25,3.774,3.118,3.774c3.384,0,3.384-0.412,6.768-0.412s3.384,0.316,6.768,0.316c1.301,0,2.1-0.042,2.785-0.094
		c0.179,1.704,0.665,2.153,0.665,4.587c0,2.985-0.249,2.985-0.249,5.969c0,2.984,0.922,3.152,0.237,6.057
		c-1.692,1.203-3.467,2.797-7.459,2.797c-5.939,0-7.986-2.212-8.007-2.225c-1.561-1.025-4.044-0.7-5.073,0.856
		c-1.028,1.556-0.22,3.767,1.34,4.793c0.154,0.102,2.004,1.508,5.789,2.412C9.297,82.063,11.359,82.925,13.865,82.925z"/>
	<path fill="#010101" d="M179.86,116.822c0-3.022-0.048-3.022-0.048-6.045c0-3.022,0.056-3.022,0.056-6.044
		s-0.184-3.022-0.184-6.044c0-3.021-0.214-3.021-0.214-6.042c0-3.023-0.243-3.023-0.243-6.046c0-3.022,0.772-3.022,0.772-6.045
		c0-3.022-0.03-3.022-0.03-6.044c0-1.864-1.541-3.246-3.409-3.246c-3.147,0-2.434,0.351-6.294,0.351
		c-1.818,0-3.952-0.493-6.297-0.493c-1.971,0-4.091-0.031-6.298-0.031c-2.042,0-4.158,0.451-6.298,0.451
		c-2.092,0-4.208,0.241-6.3,0.241c-2.14,0-4.255-0.343-6.297-0.343c-2.204,0-4.323-0.361-6.294-0.361
		c-2.342,0-4.475,0.461-6.296,0.461c-3.495,0-5.839,0.192-6.292,0.192c-2.379,0-3.529,1.161-3.529,3.025
		c0,1.864,1.661,3.07,3.529,3.07c2.945,0,2.945,0.619,5.891,0.619s2.945-0.042,5.891-0.042c2.943,0,2.943-0.28,5.887-0.28
		c2.941,0,2.941,0.091,5.882,0.091c2.942,0,2.942,0.266,5.885,0.266c2.942,0,2.942-0.404,5.883-0.404
		c2.942,0,2.942,0.361,5.883,0.361s2.942-0.288,5.883-0.288c2.94,0,3.679-1.975,5.712,0.144c2.124,2.214,0.53,2.903,0.53,5.967
		c0,3.064-0.089,3.064-0.089,6.128c0,2.82,0.123,3.049,0.143,5.458c-0.478,0.174-1.014,0.306-1.644,0.306
		c-2.726,0-2.726-0.208-5.452-0.208c-2.728,0-2.789,0.611-5.501,0.319c-2.755-0.297-2.836-1.314-5.418-0.436
		c1.33,1.404,2.49,2.932,3.449,4.531c0.977,1.629,1.584,3.403,2.101,5.236c0.501,1.774,0.674,3.596,0.674,5.562
		c0,2.168,0.222,4.401-0.382,6.432c-0.624,2.101-2.165,3.767-3.335,5.505c-1.235,1.836-2.518,3.984-4.245,5.163
		c2.702,0.813,2.929-0.451,5.751-0.451c2.825,0,2.825,0.213,5.65,0.213c2.827,0,2.827-0.341,5.654-0.341
		c0.911,0,1.615,0.232,2.215,0.477c0.059,2.081,0.29,2.42,0.29,5.092c0,3.062-0.028,3.062-0.028,6.124
		c0,3.061,0.627,3.147,0.197,6.178c-0.979,0.786-3.088,1.937-5.319,2.79c-1.624,0.621-3.526,1.03-5.593,1.03
		c-2.219,0-4.114-0.384-5.684-0.861c-3.229-0.981-5.009-2.48-5.109-2.562c-1.42-1.213-3.657-1.083-4.873,0.331
		c-1.216,1.415-0.862,3.48,0.556,4.693c0.127,0.108,1.687,1.602,4.604,2.894c1.443,0.64,3.127,1.547,5.153,1.97
		c1.644,0.343,3.524,0.044,5.512,0.044c2.141,0,4.089-0.21,5.887-0.714c2.124-0.596,4.092-1.183,5.626-2.05
		c2.939-1.659,4.896-3.223,5.037-3.361c0.648-0.634,0.355-1.785,0.355-2.691c0-3.026,0.324-3.026,0.324-6.052
		c0-3.026-0.184-3.026-0.184-6.052c0-3.024-0.248-3.024-0.248-6.048c0-3.021,0.695-3.021,0.695-6.043
		C179.995,119.845,179.86,119.845,179.86,116.822z"/>
	<path fill="#010101" d="M45.749,16.942c-1.942,0-2.201-0.231-3.574,1.139c-1.373,1.37-1.719,1.628-1.719,3.565
		c0,1.937,0.294,2.247,1.667,3.617s1.684,1.577,3.626,1.577c1.942,0,2.132-0.328,3.506-1.698s1.357-1.56,1.357-3.497
		c0-1.937,0.191-2.285-1.435-3.33C47.544,17.266,47.691,16.942,45.749,16.942z"/>
	<path fill="#010101" d="M97.624,17.95c-1.614-1.077-1.724-1.078-3.666-1.078c-1.942,0-2.032,0.007-3.405,1.376
		c-1.373,1.37-1.817,1.459-1.817,3.396c0,1.937-0.026,2.495,1.348,3.864c1.373,1.37,1.932,0.943,3.874,0.943
		c1.942,0,2.319,0.245,3.692-1.125c1.373-1.37,0.988-1.746,0.988-3.683C98.638,19.708,99.203,19.004,97.624,17.95z"/>
	<path fill="#010101" d="M74.916,14.963c-2.206-1.352-2.332-1.977-4.922-1.977s-2.72,0.607-4.551,2.433
		c-1.831,1.826-2.637,1.956-2.637,4.539s0.374,3.144,2.204,4.971c1.831,1.826,2.394,1.629,4.983,1.629s3.223,0.268,5.054-1.559
		c1.831-1.826,1.747-2.459,1.747-5.041S77.174,16.346,74.916,14.963z"/>
	<path fill="#010101" d="M154.669,122.156c1.133-1.553,1.453-3.566,2.061-5.432c0.586-1.8,0.952-3.609,0.952-5.603
		c0-1.995-0.075-3.897-0.661-5.697c-0.607-1.865-1.68-3.45-2.813-5.002c-1.144-1.568-2.171-3.29-3.743-4.431
		c-1.557-1.13-3.508-1.587-5.378-2.193c-1.805-0.584-3.644-1.014-5.643-1.014s-3.844,0.416-5.648,1
		c-1.87,0.606-3.604,1.368-5.16,2.498c-1.572,1.141-3.295,2.221-4.439,3.789c-1.133,1.553-1.487,3.564-2.094,5.429
		c-0.586,1.8-1.131,3.626-1.131,5.621s0.552,3.819,1.138,5.618c0.607,1.865,1.5,3.483,2.633,5.036
		c1.144,1.568,2.48,2.827,4.052,3.969c1.556,1.13,3.022,2.449,4.892,3.055c1.804,0.584,3.759,0.968,5.759,0.968
		c2,0,3.994-0.261,5.798-0.845c1.87-0.606,3.726-1.457,5.282-2.587C152.095,125.193,153.525,123.724,154.669,122.156z
		 M132.254,124.704c-1.752,0-2.885-1.518-2.885-3.265c0-1.747,1.133-3.01,2.885-3.01s3.447,1.263,3.447,3.01
		C135.7,123.186,134.005,124.704,132.254,124.704z M145.424,114.416c-1.815-0.191-3.856-0.009-5.981-0.009
		c-2.126,0-4.148,0.004-5.963,0.195c-2.404,0.254-4.434,0.433-5.909-0.109c-1.572-0.577-2.809-1.933-2.809-4.926
		c0-1.939,0.899-3.651,1.599-5.266c0.74-1.709,1.348-3.596,2.703-4.83c1.336-1.216,3.168-1.966,4.937-2.609
		c1.67-0.607,3.528-0.508,5.442-0.508c1.913,0,3.77-0.094,5.44,0.513c1.769,0.643,3.115,1.922,4.451,3.138
		c1.355,1.234,2.867,2.408,3.607,4.117c0.699,1.616,1.048,3.506,1.048,5.445c0,2.994-1.174,4.153-2.748,4.729
		C149.765,114.836,147.827,114.669,145.424,114.416z"/>
</g>
</svg>
